<svg xmlns="http://www.w3.org/2000/svg" width="20" height="23" viewBox="0 0 20 23"><defs><style>.a{fill:#757575;}</style></defs><path className="a" d="M21.167,19.257a3.17,3.17,0,0,0-2.178.889l-7.922-4.792a3.92,3.92,0,0,0,.1-.808,3.92,3.92,0,0,0-.1-.808L18.9,8.992a3.253,3.253,0,0,0,2.267.935A3.4,3.4,0,0,0,24.5,6.464a3.336,3.336,0,1,0-6.667,0,3.92,3.92,0,0,0,.1.808L10.1,12.018a3.253,3.253,0,0,0-2.267-.935,3.466,3.466,0,0,0,0,6.928,3.253,3.253,0,0,0,2.267-.935l7.911,4.8a3.378,3.378,0,0,0-.089.751,3.247,3.247,0,1,0,3.244-3.371Z" transform="translate(-4.5 -3)"/></svg>