<svg viewBox="0 0 1024 1024" xmlns="http://www.w3.org/2000/svg">
  <path d="M854.53888 802.46848c-2.72256 3.17568-5.5392 6.27712-8.52352 9.21088l0 26.87488c8.43328-6.34752 16.11328-13.63648 22.98816-21.62496L854.53888 802.46848zM904.1056 722.57408l0-29.04704-14.52352 0 0 14.52352c0 25.49632-6.59776 49.42592-18.14464 70.23424l14.3552 14.3552C897.344 771.8592 904.1056 748.0544 904.1056 722.57408zM485.87136 287.2736 493.38688 315.328c1.0432 3.8752 5.02336 6.17216 8.89472 5.1328 3.8752-1.03936 6.176-5.01952 5.13664-8.89088L499.89824 283.51168C498.85952 279.64032 494.88256 277.344 491.008 278.37888 487.1328 279.41824 484.832 283.3984 485.87136 287.2736zM483.488 250.32448c3.8752-1.03936 6.17216-5.01952 5.13664-8.89472L481.10528 213.37472c-1.03936-3.8752-4.2304-6.60928-8.1056-5.57056C469.12512 208.83968 466.03904 213.26144 467.0784 217.13664l7.51936 28.0544C475.63264 249.0624 479.61344 251.3632 483.488 250.32448zM962.1952 432.12864 134.41792 432.12864 134.41792 170.72256c0-56.1408 45.51168-101.65632 101.65632-101.65632 48.12864 0 88.21888 33.54304 98.75008 78.4608L269.71456 164.9728C258.0896 168.08576 251.19552 180.03136 254.30848 191.65632c3.1136 11.62112 15.05856 18.512 26.67968 15.3984l168.32832-45.10144c11.62112-3.11744 18.51968-15.05856 15.40608-26.67968S449.664 116.75392 438.04288 119.87136L376.74624 136.29696c-15.51936-63.50016-72.3904-110.7968-140.672-110.7968-80.20288 0-145.2224 65.01952-145.2224 145.2224l0 261.40608L61.8048 432.12864c-32.07808 0-58.08576 26.00768-58.08576 58.0896 0 26.92992 18.70336 48.57408 43.56672 55.15264l0 191.72672c0 112.28928 91.02336 203.31264 203.31264 203.31264l0 36.30848c0 12.03136 9.74976 21.78112 21.78112 21.78112s21.78496-9.74976 21.78496-21.78112l0-36.30848 464.71488 0 0 36.30848c0 12.03136 9.7536 21.78112 21.78496 21.78112s21.78496-9.74976 21.78496-21.78112l0-39.23456c98.41024-14.20288 174.2656-98.04672 174.2656-200.38656L976.71488 545.37088c24.86336-6.57792 43.56672-28.22272 43.56672-55.15264C1020.28096 458.13696 994.27328 432.12864 962.1952 432.12864zM933.14816 737.0976c0 88.22656-71.51936 159.74592-159.74592 159.74592L250.59776 896.84352c-88.22656 0-159.74592-71.51936-159.74592-159.74592L90.85184 548.30464l842.29696 0L933.1488 737.0976zM962.1952 504.73856 61.8048 504.73856c-8.01984 0-14.51968-6.49984-14.51968-14.51968 0-8.02368 6.49984-14.52352 14.51968-14.52352l900.3904 0c8.01984 0 14.51968 6.49984 14.51968 14.52352C976.71488 498.23808 970.21504 504.73856 962.1952 504.73856zM376.40256 271.50016 368.8864 243.44512C367.84768 239.57056 363.86688 237.2736 359.99232 238.31232 356.11712 239.34784 353.82016 243.328 354.85952 247.20704L362.37504 275.2576c1.03936 3.8752 5.01952 6.176 8.89472 5.13664C375.14048 279.35552 377.44128 275.37088 376.40256 271.50016zM333.95328 365.56672C337.824 364.52736 340.1248 360.54656 339.08608 356.672L331.57056 328.6208C330.5312 324.7424 326.55104 322.44544 322.67584 323.48416c-3.87136 1.03488-6.17216 5.01952-5.1328 8.89088l7.51552 28.05888C326.09792 364.30464 330.07808 366.6016 333.95328 365.56672zM320.29312 286.53504 312.7776 258.48064C311.73824 254.60544 307.75808 252.30848 303.88288 253.344c-3.8752 1.03936-6.17216 5.02336-5.1328 8.89472L306.2656 290.29312c1.03936 3.8752 5.01952 6.17216 8.89088 5.1328C319.03104 294.3904 321.33184 290.41024 320.29312 286.53504zM390.06272 350.5312c3.87136-1.03936 6.17216-5.01952 5.1328-8.89472L387.68 313.58208c-1.03936-3.87136-5.01952-6.16768-8.89472-5.1328C374.91008 309.488 372.61312 313.46496 373.65248 317.344l7.51552 28.05056C382.20672 349.26976 386.18752 351.57056 390.06272 350.5312zM432.512 256.46464 424.99584 228.41024c-1.03936-3.87136-5.01952-6.17216-8.89472-5.1328-3.8752 1.03488-6.17216 5.01952-5.1328 8.89088l7.51552 28.05888C419.5232 264.09792 423.504 266.39872 427.3792 265.35552 431.25376 264.32 433.55072 260.33984 432.512 256.46464zM446.17216 335.49632C450.04672 334.45696 452.34368 330.4768 451.3088 326.60544L443.7888 298.55104c-1.03936-3.8752-5.01952-6.176-8.89472-5.13664-3.87136 1.03488-6.17216 5.01952-5.1328 8.89088l7.51936 28.05888C438.31616 334.23424 442.29696 336.53504 446.17216 335.49632z"/>
</svg>