<svg viewBox="0 0 1024 1024" xmlns="http://www.w3.org/2000/svg">
  <path d="M988.104 568.809c-7.745-17.64-17.23-33.725-28.365-48.165V182.812c0-24.425-19.41-45.862-43.265-45.862H112.64c-25.162 0-44.132 20.607-44.132 45.862v338.827c-10.925 14.175-20.267 29.895-27.927 47.09-17.322 38.865-26.1 85.355-26.1 138.175v161.78c0 7.99 6.48 14.47 14.465 14.47h97.527c7.987 0 14.465-6.48 14.465-14.47v-56.965h746.016v56.965c0 7.99 6.47 14.47 14.465 14.47h97.525c7.97 0 14.445-6.46 14.465-14.435l0.32-147.355h0.03v-14.47c-0.001-52.836-8.631-99.301-25.656-138.085zM119.259 208.237c0-9.192 6.108-15.375 15.202-15.375h763.303c8.98 0 14.335 7.82 14.335 15.375v290.032c-1.2-1.04-2.42-2.085-3.65-3.105-9.735-8.022-29.225-14.845-39.43-20.61v-61.145c0-60.207-25.64-85.895-85.735-85.895H586c-35 0-58.375 8.542-71.875 27.265-13.512-18.722-36.885-27.265-71.885-27.265H240.276c-60.087 0-81.057 25.687-81.057 85.895v61.895c-8.78 5.007-26.775 10.837-36.842 17.635h-3.117V208.237z m711.475 212.477v24.147c-23.985-9.2-46.53-12.972-63-12.972H536.39v-11.917c0-43.602 12.87-48.42 57.405-48.42h180.14c44.064 0 56.799 4.98 56.799 49.162z m-340.436 0.812v8.807H252.906c-13.705 0-29.28 3.382-55.395 13.557v-21.62c0-44.182 6.507-50.72 50.567-50.72h186.37c44.537 0.002 55.85 6.374 55.85 49.976zM123.934 543.734c34.175-42.115 66.18-51.432 106.407-56.002l280.224-7.792c75.135 0 284.769 7.792 284.769 7.792 52 4.57 75.415 26.217 91.17 40.417 47.79 43.09 60.005 67.025 72.115 149.1H70.66c0.003-63.896 48.038-127.24 53.273-133.515z m838.755 294.909h-34.335v-60.09c0-7.985-6.475-14.46-14.46-14.46h-801.45c-7.987 0-14.467 6.475-14.467 14.46v60.09h-31.18V721.368H962.98l-0.291 117.275z" fill=""/>
</svg>