<?xml version="1.0" encoding="UTF-8"?>
<svg xmlns="http://www.w3.org/2000/svg" xmlns:xlink="http://www.w3.org/1999/xlink" viewBox="0 0 60 60" width="60px" height="60px">
<g id="surface65731902">
<path style=" stroke:none;fill-rule:nonzero;fill:rgb(0%,50.588238%,65.490198%);fill-opacity:1;" d="M 26 6 C 25.464844 5.992188 24.949219 6.199219 24.566406 6.574219 C 24.1875 6.953125 23.972656 7.464844 23.972656 8 L 12 8 C 11.277344 7.988281 10.609375 8.367188 10.246094 8.992188 C 9.878906 9.613281 9.878906 10.386719 10.246094 11.007812 C 10.609375 11.632812 11.277344 12.011719 12 12 L 48 12 C 48.722656 12.011719 49.390625 11.632812 49.753906 11.007812 C 50.121094 10.386719 50.121094 9.613281 49.753906 8.992188 C 49.390625 8.367188 48.722656 7.988281 48 8 L 36.027344 8 C 36.027344 7.464844 35.8125 6.953125 35.433594 6.574219 C 35.050781 6.199219 34.535156 5.992188 34 6 Z M 12 16 L 12 48 C 12 50.210938 13.789062 52 16 52 L 44 52 C 46.210938 52 48 50.210938 48 48 L 48 16 Z M 12 16 "/>
</g>
</svg>
