
<svg width="28px" height="28px" viewBox="0 0 28 28" version="1.1" xmlns="http://www.w3.org/2000/svg" xmlns:xlink="http://www.w3.org/1999/xlink">
  <!-- Generator: Sketch 48.2 (47327) - http://www.bohemiancoding.com/sketch -->
  <desc>Created with Sketch.</desc>
  <defs></defs>
  <g id="Appendix-B:-Forms" stroke="none" stroke-width="1" fill="none" fill-rule="evenodd">
    <g id="Form-04A---Get-In-Touch" transform="translate(-1364.000000, -47.000000)" fill="#000000">
      <path d="M1379.00049,61.2495112 L1391.33449,48.9155112 C1391.66847,48.5815262 1391.66847,48.0815112 1391.33449,47.7495112 C1391.0005,47.4155262 1390.50049,47.4155262 1390.16849,47.7495112 L1377.83449,60.0835113 L1365.50049,47.6655112 C1365.1665,47.3315262 1364.66649,47.3315262 1364.33449,47.6655112 C1364.0005,47.9994962 1364.0005,48.4995112 1364.33449,48.8315112 L1376.66849,61.2495112 L1364.25049,73.5835113 C1363.9165,73.9174962 1363.9165,74.4175112 1364.25049,74.7495112 C1364.58447,75.0834962 1365.08449,75.0834962 1365.41649,74.7495112 L1377.83449,62.4155112 L1390.16849,74.7495112 C1390.50247,75.0834962 1391.00249,75.0834962 1391.33449,74.7495112 C1391.7505,74.4155262 1391.7505,73.9995112 1391.41847,73.5835113 L1379.00049,61.2495112 Z" id="Close"></path>
    </g>
  </g>
</svg>
